<svg xmlns="http://www.w3.org/2000/svg" xmlns:xlink="http://www.w3.org/1999/xlink" width="512" height="512" x="0" y="0" version="1.1" viewBox="0 0 512 512"><defs><linearGradient id="Gradient_1" x1="251.059" x2="261.941" y1="46.553" y2="466.447" gradientUnits="userSpaceOnUse"><stop offset=".252" stop-color="#95C7F8"/><stop offset=".751" stop-color="#707AFF" stop-opacity=".959"/></linearGradient></defs><g id="Layer_1"><g><path fill="url(#Gradient_1)" d="M135.256,466.5 L14.013,256.5 L135.256,46.5 L377.744,46.5 L498.987,256.5 L377.744,466.5 z"/><path fill-opacity="0" stroke="#575FAC" stroke-width="20" d="M135.256,466.5 L14.013,256.5 L135.256,46.5 L377.744,46.5 L498.987,256.5 L377.744,466.5 z"/></g><path fill="#18856F" d="M273.146,153.121 L273.146,118.829 L393.171,118.829 L393.171,153.121 L353.163,153.121 L353.163,256 L313.155,256 L313.155,153.121 L273.146,153.121 z"/><path fill="#5935BD" d="M118.829,393.171 L118.829,256 L238.854,256 L238.854,290.293 L153.121,290.293 L153.121,358.879 L238.854,358.879 L238.854,393.171 L118.829,393.171 z"/><path fill="#18856F" d="M118.829,118.828 L118.829,256 L238.854,256 L178.841,187.414 L238.854,118.828 L118.829,118.828 z"/><path fill="#5935BD" d="M273.146,393.171 L273.146,256 L393.171,256 L393.171,290.293 L307.439,290.293 L307.439,358.879 L393.171,358.879 L393.171,393.171 L273.146,393.171 z"/></g></svg>